<svg width="56" height="34" viewBox="0 0 56 34" fill="none" xmlns="http://www.w3.org/2000/svg">
<g clip-path="url(#clip0_501_191)">
<path d="M-50.908 7.008C-46.708 7.008 -43.656 9.136 -43.656 13.392V13.84H-47.296V13.392C-47.296 11.152 -48.668 10.256 -50.908 10.256C-53.148 10.256 -54.184 11.152 -54.184 12.608C-54.184 14.064 -53.148 14.736 -50.74 15.268L-50.096 15.408C-45.924 16.304 -43.264 17.76 -43.264 21.344C-43.264 24.928 -46.148 27.392 -50.684 27.392C-55.22 27.392 -58.384 24.872 -58.384 20.616V20.336H-54.744V20.616C-54.744 22.968 -53.204 24.144 -50.684 24.144C-48.164 24.144 -46.904 23.024 -46.904 21.456C-46.904 19.832 -48.22 19.272 -50.74 18.712L-51.384 18.572C-55.5 17.676 -57.824 16.304 -57.824 12.72C-57.824 9.136 -55.108 7.008 -50.908 7.008ZM-41.0817 7.4H-37.3857V20.224C-37.3857 22.632 -35.9857 24.088 -33.4097 24.088C-30.8337 24.088 -29.4337 22.632 -29.4337 20.224V7.4H-25.7377V20.112C-25.7377 24.592 -28.5938 27.392 -33.4097 27.392C-38.2257 27.392 -41.0817 24.592 -41.0817 20.112V7.4ZM-22.5947 7.4H-14.5307C-10.8347 7.4 -8.25875 9.864 -8.25875 13.616C-8.25875 17.368 -10.9187 19.832 -14.5307 19.832H-18.8987V27H-22.5947V7.4ZM-18.8987 10.76V16.472H-14.8947C-13.1307 16.472 -11.9547 15.352 -11.9547 13.616C-11.9547 11.88 -13.1307 10.76 -14.8947 10.76H-18.8987ZM1.137 7.4H4.833V20.224C4.833 22.632 6.233 24.088 8.809 24.088C11.385 24.088 12.785 22.632 12.785 20.224V7.4H16.481V20.112C16.481 24.592 13.625 27.392 8.809 27.392C3.993 27.392 1.137 24.592 1.137 20.112V7.4Z" fill="#272734"/>
<path d="M19.624 7.4H23.32V27H19.624V7.4Z" fill="white"/>
<path d="M34.1162 7.4H37.8122V27H34.1162V7.4ZM39.6615 7.4H55.2295V10.76H49.2935V27H45.5975V10.76H39.6615V7.4Z" fill="#272E34"/>
<mask id="mask0_501_191" style="mask-type:alpha" maskUnits="userSpaceOnUse" x="-59" y="7" width="115" height="21">
<path d="M-50.9078 7.00781C-46.7078 7.00781 -43.6558 9.13581 -43.6558 13.3918V13.8398H-47.2958V13.3918C-47.2958 11.1518 -48.6678 10.2558 -50.9078 10.2558C-53.1478 10.2558 -54.1838 11.1518 -54.1838 12.6078C-54.1838 14.0638 -53.1478 14.7358 -50.7398 15.2678L-50.0958 15.4078C-45.9238 16.3038 -43.2638 17.7598 -43.2638 21.3438C-43.2638 24.9278 -46.1478 27.3918 -50.6838 27.3918C-55.2198 27.3918 -58.3838 24.8718 -58.3838 20.6158V20.3358H-54.7438V20.6158C-54.7438 22.9678 -53.2038 24.1438 -50.6838 24.1438C-48.1638 24.1438 -46.9038 23.0238 -46.9038 21.4558C-46.9038 19.8318 -48.2198 19.2718 -50.7398 18.7118L-51.3838 18.5718C-55.4998 17.6758 -57.8238 16.3038 -57.8238 12.7198C-57.8238 9.13581 -55.1078 7.00781 -50.9078 7.00781Z" fill="#272734"/>
<path d="M-41.0815 7.39981H-37.3855V20.2238C-37.3855 22.6318 -35.9855 24.0878 -33.4095 24.0878C-30.8335 24.0878 -29.4335 22.6318 -29.4335 20.2238V7.39981H-25.7375V20.1118C-25.7375 24.5918 -28.5935 27.3918 -33.4095 27.3918C-38.2255 27.3918 -41.0815 24.5918 -41.0815 20.1118V7.39981Z" fill="#272734"/>
<path d="M-22.5945 7.39981H-14.5305C-10.8345 7.39981 -8.25854 9.86381 -8.25854 13.6158C-8.25854 17.3678 -10.9185 19.8318 -14.5305 19.8318H-18.8985V26.9998H-22.5945V7.39981ZM-18.8985 10.7598V16.4718H-14.8945C-13.1305 16.4718 -11.9545 15.3518 -11.9545 13.6158C-11.9545 11.8798 -13.1305 10.7598 -14.8945 10.7598H-18.8985Z" fill="#272734"/>
<path d="M1.13721 7.39981H4.83321V20.2238C4.83321 22.6318 6.23321 24.0878 8.80921 24.0878C11.3852 24.0878 12.7852 22.6318 12.7852 20.2238V7.39981H16.4812V13.7558V20.1118C16.4812 24.5918 13.6252 27.3918 8.80921 27.3918C3.99321 27.3918 1.13721 24.5918 1.13721 20.1118V7.39981Z" fill="#272734"/>
<path d="M19.6242 7.39981H23.3202V26.9998H19.6242V7.39981Z" fill="#272734"/>
<path d="M34.1164 7.39981H37.8124V26.9998H34.1164V7.39981Z" fill="#272734"/>
<path d="M39.6617 7.39981H55.2297V10.7598H49.2937V26.9998H45.5977V10.7598H39.6617V7.39981Z" fill="#272734"/>
</mask>
<g mask="url(#mask0_501_191)">
<rect x="11" y="6" width="7" height="10" fill="#272734"/>
</g>
<path d="M25.627 27.744L12.8946 18.7565C11.6811 17.8999 11.6811 16.1001 12.8946 15.2435L25.627 6.25595C27.2563 5.10583 29.2328 7.14011 28.0362 8.73565L21.8379 17L28.0362 25.2644C29.2328 26.8599 27.2563 28.8942 25.627 27.744Z" fill="#0085FF" stroke="white" stroke-width="2.3"/>
</g>
<defs>
<clipPath id="clip0_501_191">
<rect width="56" height="34" fill="white"/>
</clipPath>
</defs>
</svg>
