<svg width="18" height="18" viewBox="0 0 18 18" fill="none" xmlns="http://www.w3.org/2000/svg">
<path fill-rule="evenodd" clip-rule="evenodd" d="M14.1153 8.43506C14.4277 8.74748 14.4277 9.25401 14.1153 9.56643L10.2148 13.4669C9.90242 13.7793 9.39589 13.7793 9.08347 13.4669C8.77105 13.1545 8.77105 12.6479 9.08347 12.3355L12.4182 9.00074L9.08347 5.66598C8.77105 5.35356 8.77105 4.84703 9.08347 4.53461C9.39589 4.22219 9.90242 4.22219 10.2148 4.53461L14.1153 8.43506Z" fill="black"/>
<path fill-rule="evenodd" clip-rule="evenodd" d="M14.3496 9.0002C14.3496 9.44202 13.9914 9.8002 13.5496 9.8002L4.44961 9.80019C4.00778 9.80019 3.64961 9.44202 3.64961 9.00019C3.64961 8.55837 4.00778 8.20019 4.44961 8.20019L13.5496 8.2002C13.9914 8.2002 14.3496 8.55837 14.3496 9.0002Z" fill="black"/>
</svg>
