<svg width="18" height="18" viewBox="0 0 18 18" fill="none" xmlns="http://www.w3.org/2000/svg">
<g clip-path="url(#clip0_324_17996)">
<path fill-rule="evenodd" clip-rule="evenodd" d="M9.00035 6.99976C7.89559 6.99976 7 7.89534 7 9.0001C7 10.1049 7.89559 11.0005 9.00035 11.0005C10.1051 11.0005 11.0007 10.1049 11.0007 9.0001C11.0007 7.89534 10.1051 6.99976 9.00035 6.99976ZM5 9.0001C5 6.79077 6.79102 4.99976 9.00035 4.99976C11.2097 4.99976 13.0007 6.79077 13.0007 9.0001C13.0007 11.2094 11.2097 13.0005 9.00035 13.0005C6.79102 13.0005 5 11.2094 5 9.0001Z" fill="black"/>
<path fill-rule="evenodd" clip-rule="evenodd" d="M5.36821 1.31542C7.1027 0.495746 9.06346 0.286927 10.9317 0.722912C12.7999 1.1589 14.4657 2.21404 15.6582 3.71679C16.8507 5.21953 17.4997 7.08148 17.4999 8.99989L17.4999 8.99995L17.4999 9.74995C17.4999 10.6119 17.1575 11.4385 16.548 12.048C15.9385 12.6575 15.1118 12.9999 14.2499 12.9999C13.3879 12.9999 12.5613 12.6575 11.9518 12.048C11.3423 11.4385 10.9999 10.6119 10.9999 9.74995V5.99998C10.9999 5.4477 11.4476 4.99998 11.9999 4.99998C12.5522 4.99998 12.9999 5.4477 12.9999 5.99998V9.74995C12.9999 10.0815 13.1316 10.3994 13.366 10.6338C13.6004 10.8682 13.9184 10.9999 14.2499 10.9999C14.5814 10.9999 14.8993 10.8682 15.1338 10.6338C15.3682 10.3994 15.4999 10.0815 15.4999 9.74995L15.4999 9.00002C15.4999 9 15.4999 8.99997 15.4999 8.99995C15.4998 7.53296 15.0034 6.10914 14.0915 4.96001C13.1796 3.81085 11.9058 3.00398 10.4771 2.67058C9.04851 2.33718 7.54911 2.49686 6.22274 3.12367C4.89638 3.75047 3.82105 4.80753 3.17162 6.12297C2.52218 7.4384 2.33684 8.93485 2.64572 10.369C2.95459 11.8031 3.73953 13.0906 4.87289 14.022C6.00625 14.9535 7.42139 15.4742 8.88818 15.4994C10.355 15.5246 11.7872 15.0529 12.9519 14.161C13.3904 13.8252 14.018 13.9084 14.3538 14.3469C14.6896 14.7854 14.6064 15.413 14.1679 15.7488C12.6448 16.9152 10.7719 17.5321 8.8538 17.4991C6.93567 17.4661 5.08511 16.7852 3.60302 15.5672C2.12092 14.3491 1.09447 12.6655 0.690549 10.7901C0.286631 8.91467 0.529008 6.95777 1.37827 5.23759C2.22753 3.5174 3.63373 2.13509 5.36821 1.31542Z" fill="black"/>
</g>
<defs>
<clipPath id="clip0_324_17996">
<rect width="18" height="18" fill="white"/>
</clipPath>
</defs>
</svg>
