<svg width="18" height="18" viewBox="0 0 18 18" fill="none" xmlns="http://www.w3.org/2000/svg">
<path fill-rule="evenodd" clip-rule="evenodd" d="M3.88373 8.43481C3.57131 8.74723 3.57131 9.25377 3.88373 9.56619L7.78418 13.4666C8.0966 13.7791 8.60313 13.7791 8.91555 13.4666C9.22797 13.1542 9.22797 12.6477 8.91555 12.3353L5.58079 9.0005L8.91555 5.66573C9.22797 5.35331 9.22797 4.84678 8.91555 4.53436C8.60313 4.22194 8.0966 4.22194 7.78418 4.53436L3.88373 8.43481Z" fill="black"/>
<path fill-rule="evenodd" clip-rule="evenodd" d="M3.64941 8.99995C3.64941 9.44178 4.00759 9.79995 4.44941 9.79995L13.5494 9.79995C13.9912 9.79995 14.3494 9.44178 14.3494 8.99995C14.3494 8.55812 13.9912 8.19995 13.5494 8.19995L4.44941 8.19995C4.00759 8.19995 3.64941 8.55812 3.64941 8.99995Z" fill="black"/>
</svg>
