<svg width="18" height="18" viewBox="0 0 18 18" fill="none" xmlns="http://www.w3.org/2000/svg">
<path fill-rule="evenodd" clip-rule="evenodd" d="M14.2499 3.0251C14.6503 3.0251 14.9749 3.34968 14.9749 3.75008V14.25C14.9749 14.6504 14.6503 14.975 14.2499 14.975H3.75001C3.34962 14.975 3.02503 14.6504 3.02503 14.25V3.75008C3.02503 3.34968 3.34962 3.0251 3.75001 3.0251H14.2499ZM16.5249 3.75008C16.5249 2.49364 15.5064 1.4751 14.2499 1.4751H3.75001C2.49357 1.4751 1.47503 2.49364 1.47503 3.75008V14.25C1.47503 15.5064 2.49357 16.525 3.75001 16.525H14.2499C15.5064 16.525 16.5249 15.5064 16.5249 14.25V3.75008Z" fill="black"/>
<path fill-rule="evenodd" clip-rule="evenodd" d="M11.2499 1.4751C10.8219 1.4751 10.4749 1.82208 10.4749 2.2501V15.75C10.4749 16.178 10.8219 16.525 11.2499 16.525C11.6779 16.525 12.0249 16.178 12.0249 15.75V2.2501C12.0249 1.82208 11.6779 1.4751 11.2499 1.4751Z" fill="black"/>
</svg>
