<svg width="18" height="18" viewBox="0 0 18 18" fill="none" xmlns="http://www.w3.org/2000/svg">
<path fill-rule="evenodd" clip-rule="evenodd" d="M2.94148 1.44417C3.35406 1.03159 3.91363 0.799805 4.49711 0.799805H10.4971C10.6827 0.799805 10.8607 0.873554 10.992 1.00483L15.492 5.50479C15.6233 5.63606 15.697 5.81411 15.697 5.99976V14.9997C15.697 15.5832 15.4652 16.1427 15.0526 16.5553C14.6401 16.9679 14.0805 17.1997 13.497 17.1997H4.49711C3.91363 17.1997 3.35406 16.9679 2.94148 16.5553C2.5289 16.1427 2.29712 15.5832 2.29712 14.9997V2.99979C2.29712 2.41632 2.5289 1.85674 2.94148 1.44417ZM4.49711 2.1998C4.28494 2.1998 4.08146 2.28409 3.93143 2.43412C3.7814 2.58414 3.69712 2.78762 3.69712 2.99979V14.9997C3.69712 15.2118 3.7814 15.4153 3.93143 15.5654C4.08146 15.7154 4.28494 15.7997 4.49711 15.7997H13.497C13.7092 15.7997 13.9127 15.7154 14.0627 15.5654C14.2127 15.4153 14.297 15.2118 14.297 14.9997V6.28971L10.2071 2.1998H4.49711Z" fill="black"/>
<path fill-rule="evenodd" clip-rule="evenodd" d="M5.30298 12.7498C5.30298 12.3632 5.61638 12.0498 6.00298 12.0498H12.0037C12.3903 12.0498 12.7037 12.3632 12.7037 12.7498C12.7037 13.1364 12.3903 13.4498 12.0037 13.4498H6.00298C5.61638 13.4498 5.30298 13.1364 5.30298 12.7498Z" fill="black"/>
<path fill-rule="evenodd" clip-rule="evenodd" d="M5.30298 9.7498C5.30298 9.36321 5.61638 9.0498 6.00298 9.0498H12.0037C12.3903 9.0498 12.7037 9.36321 12.7037 9.7498C12.7037 10.1364 12.3903 10.4498 12.0037 10.4498H6.00298C5.61638 10.4498 5.30298 10.1364 5.30298 9.7498Z" fill="black"/>
<path fill-rule="evenodd" clip-rule="evenodd" d="M5.30298 6.74932C5.30298 6.36272 5.61638 6.04932 6.00298 6.04932H7.50315C7.88975 6.04932 8.20315 6.36272 8.20315 6.74932C8.20315 7.13592 7.88975 7.44932 7.50315 7.44932H6.00298C5.61638 7.44932 5.30298 7.13592 5.30298 6.74932Z" fill="black"/>
<path fill-rule="evenodd" clip-rule="evenodd" d="M10.4986 0.799805C10.8852 0.799805 11.1986 1.11321 11.1986 1.4998V5.30032H14.9991C15.3857 5.30032 15.6991 5.61373 15.6991 6.00032C15.6991 6.38692 15.3857 6.70033 14.9991 6.70033H10.4986C10.112 6.70033 9.79858 6.38692 9.79858 6.00032V1.4998C9.79858 1.11321 10.112 0.799805 10.4986 0.799805Z" fill="black"/>
</svg>
