<svg width="18" height="18" viewBox="0 0 18 18" fill="none" xmlns="http://www.w3.org/2000/svg">
<path fill-rule="evenodd" clip-rule="evenodd" d="M3.7496 3.77485C3.3492 3.77485 3.02461 4.09944 3.02461 4.49984V14.9997C3.02461 15.4001 3.3492 15.7247 3.7496 15.7247H14.2495C14.6499 15.7247 14.9745 15.4001 14.9745 14.9997V4.49984C14.9745 4.09944 14.6499 3.77485 14.2495 3.77485H3.7496ZM1.47461 4.49984C1.47461 3.2434 2.49316 2.22485 3.7496 2.22485H14.2495C15.5059 2.22485 16.5245 3.2434 16.5245 4.49984V14.9997C16.5245 16.2562 15.5059 17.2747 14.2495 17.2747H3.7496C2.49316 17.2747 1.47461 16.2562 1.47461 14.9997V4.49984Z" fill="black"/>
<path fill-rule="evenodd" clip-rule="evenodd" d="M1.47461 7.49985C1.47461 7.07183 1.82159 6.72485 2.24961 6.72485H15.7495C16.1775 6.72485 16.5245 7.07183 16.5245 7.49985C16.5245 7.92787 16.1775 8.27485 15.7495 8.27485H2.24961C1.82159 8.27485 1.47461 7.92787 1.47461 7.49985Z" fill="black"/>
<path fill-rule="evenodd" clip-rule="evenodd" d="M11.9996 0.724854C12.4276 0.724854 12.7746 1.07183 12.7746 1.49985V4.5002C12.7746 4.92822 12.4276 5.2752 11.9996 5.2752C11.5716 5.2752 11.2246 4.92822 11.2246 4.5002V1.49985C11.2246 1.07183 11.5716 0.724854 11.9996 0.724854Z" fill="black"/>
<path fill-rule="evenodd" clip-rule="evenodd" d="M5.99961 0.724854C6.42763 0.724854 6.77461 1.07183 6.77461 1.49985V4.5002C6.77461 4.92822 6.42763 5.2752 5.99961 5.2752C5.57159 5.2752 5.22461 4.92822 5.22461 4.5002V1.49985C5.22461 1.07183 5.57159 0.724854 5.99961 0.724854Z" fill="black"/>
</svg>
