<svg width="18" height="18" viewBox="0 0 18 18" fill="none" xmlns="http://www.w3.org/2000/svg">
<path fill-rule="evenodd" clip-rule="evenodd" d="M9.00005 16.1998C12.9765 16.1998 16.2 12.9763 16.2 8.9998C16.2 5.02335 12.9765 1.7998 9.00005 1.7998C5.0236 1.7998 1.80005 5.02335 1.80005 8.9998C1.80005 12.9763 5.0236 16.1998 9.00005 16.1998ZM12.3364 7.8362C12.6879 7.48473 12.6879 6.91488 12.3364 6.56341C11.985 6.21194 11.4151 6.21194 11.0637 6.56341L8.10005 9.52701L6.93644 8.36341C6.58497 8.01194 6.01512 8.01194 5.66365 8.36341C5.31218 8.71488 5.31218 9.28473 5.66365 9.6362L7.46365 11.4362C7.81512 11.7877 8.38497 11.7877 8.73644 11.4362L12.3364 7.8362Z" fill="black"/>
</svg>
