<svg width="18" height="18" viewBox="0 0 18 18" fill="none" xmlns="http://www.w3.org/2000/svg">
<path fill-rule="evenodd" clip-rule="evenodd" d="M14.0036 3.99948C14.3356 4.33142 14.3356 4.86961 14.0036 5.20156L5.20363 14.0016C4.87168 14.3335 4.33349 14.3335 4.00155 14.0016C3.6696 13.6696 3.6696 13.1314 4.00155 12.7995L12.8015 3.99948C13.1335 3.66753 13.6717 3.66753 14.0036 3.99948Z" fill="black"/>
<path fill-rule="evenodd" clip-rule="evenodd" d="M3.99906 3.99948C4.331 3.66753 4.86919 3.66753 5.20114 3.99948L14.0011 12.7995C14.3331 13.1314 14.3331 13.6696 14.0011 14.0016C13.6692 14.3335 13.131 14.3335 12.7991 14.0016L3.99906 5.20156C3.66711 4.86961 3.66711 4.33142 3.99906 3.99948Z" fill="black"/>
</svg>
