<svg width="18" height="18" viewBox="0 0 18 18" fill="none" xmlns="http://www.w3.org/2000/svg">
<path fill-rule="evenodd" clip-rule="evenodd" d="M11.2283 3.99918C10.1498 3.51866 8.94498 3.39962 7.79336 3.65981C6.64175 3.92 5.6051 4.54549 4.83801 5.44298C4.07092 6.34047 3.6145 7.46188 3.53682 8.63996C3.45914 9.81804 3.76436 10.9897 4.40695 11.9801C5.04955 12.9706 5.9951 13.7268 7.10257 14.1359C8.21005 14.5451 9.42012 14.5853 10.5523 14.2505C11.6845 13.9158 12.6781 13.224 13.3851 12.2784C14.092 11.3328 14.4743 10.184 14.475 9.00333V8.43334C14.475 8.03294 14.7995 7.70834 15.2 7.70834C15.6004 7.70834 15.925 8.03294 15.925 8.43334V9.00374C15.9241 10.4971 15.4405 11.9505 14.5464 13.1466C13.6523 14.3426 12.3955 15.2176 10.9634 15.641C9.53139 16.0644 8.00085 16.0136 6.60007 15.4961C5.19929 14.9785 4.00332 14.0221 3.19054 12.7693C2.37776 11.5166 1.99171 10.0346 2.08996 8.54455C2.18822 7.05447 2.76552 5.63606 3.73576 4.50088C4.706 3.3657 6.0172 2.57456 7.47381 2.24546C8.93042 1.91636 10.4544 2.06693 11.8184 2.67471C12.1842 2.83767 12.3486 3.26628 12.1856 3.63202C12.0226 3.99776 11.594 4.16215 11.2283 3.99918Z" fill="black"/>
<path fill-rule="evenodd" clip-rule="evenodd" d="M15.7125 3.53045C15.9958 3.81344 15.996 4.27248 15.713 4.55576L9.51296 10.762C9.37702 10.8981 9.19258 10.9746 9.00024 10.9746C8.80789 10.9747 8.62341 10.8983 8.4874 10.7623L6.62739 8.90225C6.34426 8.61912 6.34426 8.16008 6.62739 7.87695C6.91052 7.59382 7.36956 7.59382 7.65269 7.87695L8.9998 9.22405L14.6872 3.53096C14.9702 3.24769 15.4292 3.24746 15.7125 3.53045Z" fill="black"/>
</svg>
