<svg width="18" height="18" viewBox="0 0 18 18" fill="none" xmlns="http://www.w3.org/2000/svg">
<path fill-rule="evenodd" clip-rule="evenodd" d="M7.95866 1.48287C8.27974 1.29784 8.64381 1.20044 9.01441 1.20044C9.385 1.20044 9.74908 1.29784 10.0702 1.48287C10.0707 1.48315 10.0712 1.48344 10.0717 1.48373L15.0224 4.31269C15.3435 4.4981 15.6102 4.76469 15.7958 5.08572C15.9813 5.40675 16.0792 5.77093 16.0796 6.14173V11.8004C16.0792 12.1712 15.9813 12.5361 15.7958 12.8571C15.6102 13.1782 15.3435 13.4447 15.0224 13.6301L15.0197 13.6317L10.0717 16.4591C10.0711 16.4594 10.0706 16.4597 10.0701 16.46C9.74906 16.645 9.38499 16.7424 9.01441 16.7424C8.64382 16.7424 8.27976 16.645 7.95869 16.46C7.95818 16.4597 7.95767 16.4594 7.95717 16.4591L3.00916 13.6317L3.00646 13.6301C2.68534 13.4447 2.41861 13.1782 2.23305 12.8571C2.04748 12.5361 1.9496 12.1719 1.94922 11.8011L1.94922 6.14245C1.9496 5.77165 2.04748 5.40675 2.23305 5.08572C2.41861 4.76469 2.68534 4.4981 3.00646 4.3127L3.00916 4.31114L7.95717 1.48373C7.95766 1.48344 7.95816 1.48315 7.95866 1.48287ZM9.01441 2.60044C8.88899 2.60044 8.76578 2.63345 8.65717 2.69616L8.65447 2.69772L3.70646 5.52514C3.70609 5.52535 3.70573 5.52556 3.70536 5.52577C3.59734 5.58839 3.50761 5.67823 3.44512 5.78634C3.38247 5.89473 3.3494 6.01768 3.34922 6.14288V11.8C3.3494 11.9252 3.38247 12.0481 3.44512 12.1565C3.5076 12.2646 3.59731 12.3544 3.7053 12.417C3.70569 12.4173 3.70608 12.4175 3.70646 12.4177L8.65717 15.2467C8.76578 15.3094 8.88899 15.3424 9.01441 15.3424C9.13983 15.3424 9.26304 15.3094 9.37165 15.2467L9.37435 15.2451L14.3224 12.4177C14.3227 12.4175 14.3231 12.4173 14.3235 12.417C14.4315 12.3544 14.5212 12.2646 14.5837 12.1565C14.6464 12.048 14.6795 11.925 14.6796 11.7997V6.14317C14.6795 6.01787 14.6464 5.89481 14.5837 5.78634C14.5212 5.67823 14.4315 5.58838 14.3234 5.52576C14.3231 5.52555 14.3227 5.52535 14.3224 5.52514L9.37165 2.69617C9.26303 2.63346 9.13983 2.60044 9.01441 2.60044Z" fill="black"/>
<path fill-rule="evenodd" clip-rule="evenodd" d="M2.23482 5.05566C2.4284 4.72102 2.8566 4.60667 3.19125 4.80025L9.01503 8.1691L14.8388 4.80025C15.1735 4.60667 15.6017 4.72102 15.7952 5.05566C15.9888 5.39031 15.8745 5.81852 15.5398 6.0121L9.36554 9.58371C9.1487 9.70914 8.88136 9.70914 8.66453 9.58371L2.49023 6.0121C2.15559 5.81852 2.04124 5.39031 2.23482 5.05566Z" fill="black"/>
<path fill-rule="evenodd" clip-rule="evenodd" d="M9.01641 8.27075C9.40301 8.27075 9.71641 8.58415 9.71641 8.97075V16.0998C9.71641 16.4864 9.40301 16.7998 9.01641 16.7998C8.62981 16.7998 8.31641 16.4864 8.31641 16.0998V8.97075C8.31641 8.58415 8.62981 8.27075 9.01641 8.27075Z" fill="black"/>
</svg>
