<svg width="18" height="18" viewBox="0 0 18 18" fill="none" xmlns="http://www.w3.org/2000/svg">
<path fill-rule="evenodd" clip-rule="evenodd" d="M5.39597 3.14601C5.59143 2.81246 6.02028 2.70051 6.35382 2.89597L12.551 6.5275C12.8846 6.72296 12.9965 7.15181 12.8011 7.48535C12.6056 7.8189 12.1768 7.93085 11.8432 7.73539L5.64601 4.10386C5.31246 3.9084 5.20051 3.47956 5.39597 3.14601Z" fill="#9B51E0"/>
<path fill-rule="evenodd" clip-rule="evenodd" d="M7.95792 1.48262C8.279 1.2976 8.64308 1.2002 9.01368 1.2002C9.38427 1.2002 9.74835 1.2976 10.0694 1.48262C10.0699 1.48291 10.0704 1.4832 10.0709 1.48348L15.0216 4.31245C15.3427 4.49786 15.6095 4.76444 15.795 5.08547C15.9806 5.4065 16.0785 5.77068 16.0789 6.14149V11.8002C16.0785 12.171 15.9806 12.5359 15.795 12.8569C15.6095 13.1779 15.3427 13.4445 15.0216 13.6299L15.0189 13.6315L10.0709 16.4589C10.0704 16.4592 10.0699 16.4595 10.0694 16.4598C9.74833 16.6448 9.38426 16.7422 9.01368 16.7422C8.64309 16.7422 8.27903 16.6448 7.95796 16.4598C7.95745 16.4595 7.95694 16.4592 7.95643 16.4589L3.00843 13.6315L3.00573 13.6299C2.68461 13.4445 2.41788 13.1779 2.23232 12.8569C2.04675 12.5359 1.94887 12.1717 1.94849 11.8009L1.94849 6.1422C1.94887 5.7714 2.04675 5.4065 2.23232 5.08547C2.41788 4.76444 2.68461 4.49786 3.00573 4.31246L3.00843 4.3109L7.95643 1.48348C7.95693 1.4832 7.95743 1.48291 7.95792 1.48262ZM9.01368 2.6002C8.88826 2.6002 8.76505 2.63321 8.65643 2.69592L8.65373 2.69748L3.70573 5.52489C3.70536 5.5251 3.70499 5.52532 3.70463 5.52553C3.59661 5.58815 3.50688 5.67799 3.44439 5.78609C3.38174 5.89449 3.34867 6.01744 3.34849 6.14263V11.7997C3.34867 11.9249 3.38174 12.0479 3.44439 12.1563C3.50687 12.2644 3.59658 12.3542 3.70457 12.4168C3.70496 12.417 3.70534 12.4172 3.70573 12.4175L8.65644 15.2464C8.76505 15.3091 8.88826 15.3422 9.01368 15.3422C9.13909 15.3422 9.2623 15.3091 9.37092 15.2464L9.37362 15.2449L14.3216 12.4175C14.322 12.4172 14.3224 12.417 14.3228 12.4168C14.4308 12.3542 14.5205 12.2644 14.583 12.1563C14.6457 12.0478 14.6787 11.9247 14.6789 11.7994V6.14292C14.6787 6.01763 14.6457 5.89457 14.583 5.78609C14.5205 5.67798 14.4307 5.58814 14.3227 5.52552C14.3223 5.52531 14.322 5.5251 14.3216 5.52489L9.37092 2.69592C9.2623 2.63322 9.13909 2.6002 9.01368 2.6002Z" fill="#9B51E0"/>
<path fill-rule="evenodd" clip-rule="evenodd" d="M2.23384 5.05566C2.42742 4.72102 2.85563 4.60667 3.19027 4.80025L9.01406 8.1691L14.8378 4.80025C15.1725 4.60667 15.6007 4.72102 15.7943 5.05566C15.9879 5.39031 15.8735 5.81852 15.5389 6.0121L9.36456 9.58371C9.14772 9.70914 8.88039 9.70914 8.66355 9.58371L2.48926 6.0121C2.15462 5.81852 2.04026 5.39031 2.23384 5.05566Z" fill="#9B51E0"/>
<path fill-rule="evenodd" clip-rule="evenodd" d="M9.01567 8.27051C9.40227 8.27051 9.71567 8.58391 9.71567 8.97051V16.0996C9.71567 16.4862 9.40227 16.7996 9.01567 16.7996C8.62907 16.7996 8.31567 16.4862 8.31567 16.0996V8.97051C8.31567 8.58391 8.62907 8.27051 9.01567 8.27051Z" fill="#9B51E0"/>
</svg>
