<svg width="16" height="16" viewBox="0 0 16 16" fill="none" xmlns="http://www.w3.org/2000/svg">
<path fill-rule="evenodd" clip-rule="evenodd" d="M6.50005 1.94999C6.05822 1.94999 5.70005 2.30816 5.70005 2.74999V10.25C5.70005 10.6918 6.05822 11.05 6.50005 11.05H12.5C12.9419 11.05 13.3 10.6918 13.3 10.25V2.74999C13.3 2.30816 12.9419 1.94999 12.5 1.94999H6.50005ZM4.30005 2.74999C4.30005 1.53496 5.28502 0.549988 6.50005 0.549988H12.5C13.7151 0.549988 14.7 1.53496 14.7 2.74999V10.25C14.7 11.465 13.7151 12.45 12.5 12.45H11.7V12.75C11.7 14.2412 10.4912 15.45 9.00005 15.45H3.50005C2.28502 15.45 1.30005 14.465 1.30005 13.25V6.24999C1.30005 4.75882 2.50888 3.54999 4.00005 3.54999H4.30005V2.74999ZM4.30005 4.94999H4.00005C3.28208 4.94999 2.70005 5.53202 2.70005 6.24999V13.25C2.70005 13.6918 3.05822 14.05 3.50005 14.05H9.00005C9.71802 14.05 10.3 13.468 10.3 12.75V12.45H6.50005C5.28502 12.45 4.30005 11.465 4.30005 10.25V4.94999Z" fill="#111826"/>
</svg>
