<svg width="22" height="22" viewBox="0 0 22 22" fill="none" xmlns="http://www.w3.org/2000/svg">
<path fill-rule="evenodd" clip-rule="evenodd" d="M7.24234 3.09998C7.62102 1.93894 8.71252 1.09998 9.99998 1.09998H12C13.2874 1.09998 14.3789 1.93894 14.7576 3.09998H16C17.6016 3.09998 18.9 4.39835 18.9 5.99998V18C18.9 19.6016 17.6016 20.9 16 20.9H5.99998C4.39835 20.9 3.09998 19.6016 3.09998 18V5.99998C3.09998 4.39835 4.39835 3.09998 5.99998 3.09998H7.24234ZM7.24234 4.89998H5.99998C5.39246 4.89998 4.89998 5.39246 4.89998 5.99998V18C4.89998 18.6075 5.39246 19.1 5.99998 19.1H16C16.6075 19.1 17.1 18.6075 17.1 18V5.99998C17.1 5.39246 16.6075 4.89998 16 4.89998H14.7576C14.3789 6.06102 13.2874 6.89998 12 6.89998H9.99998C8.71252 6.89998 7.62102 6.06102 7.24234 4.89998ZM9.99998 2.89998C9.39246 2.89998 8.89998 3.39246 8.89998 3.99998C8.89998 4.60749 9.39246 5.09998 9.99998 5.09998H12C12.6075 5.09998 13.1 4.60749 13.1 3.99998C13.1 3.39246 12.6075 2.89998 12 2.89998H9.99998Z" fill="#111826"/>
</svg>
