<svg width="18" height="18" viewBox="0 0 18 18" fill="none" xmlns="http://www.w3.org/2000/svg">
<path fill-rule="evenodd" clip-rule="evenodd" d="M2.19441 2.19417C2.60699 1.78159 3.16656 1.5498 3.75003 1.5498H14.2499C14.8334 1.5498 15.393 1.78159 15.8056 2.19417C16.2181 2.60674 16.4499 3.16632 16.4499 3.74979V14.2497C16.4499 14.8332 16.2181 15.3927 15.8056 15.8053C15.393 16.2179 14.8334 16.4497 14.2499 16.4497H3.75003C3.16656 16.4497 2.60699 16.2179 2.19441 15.8053C1.78183 15.3927 1.55005 14.8332 1.55005 14.2497V3.74979C1.55005 3.16632 1.78183 2.60674 2.19441 2.19417ZM3.75003 2.9498C3.53787 2.9498 3.33439 3.03409 3.18436 3.18412C3.03433 3.33414 2.95005 3.53762 2.95005 3.74979V14.2497C2.95005 14.4619 3.03433 14.6653 3.18436 14.8154C3.33439 14.9654 3.53787 15.0497 3.75003 15.0497H14.2499C14.4621 15.0497 14.6656 14.9654 14.8156 14.8154C14.9656 14.6653 15.0499 14.4619 15.0499 14.2497V3.74979C15.0499 3.53762 14.9656 3.33414 14.8156 3.18412C14.6656 3.03409 14.4621 2.9498 14.2499 2.9498H3.75003Z" fill="black"/>
<path fill-rule="evenodd" clip-rule="evenodd" d="M6.2499 16L6.2499 2L7.6499 2L7.6499 16L6.2499 16Z" fill="black"/>
<path fill-rule="evenodd" clip-rule="evenodd" d="M10.2499 16L10.2499 2L11.6499 2L11.6499 16L10.2499 16Z" fill="black"/>
</svg>
