<svg width="18" height="18" viewBox="0 0 18 18" fill="none" xmlns="http://www.w3.org/2000/svg">
<path fill-rule="evenodd" clip-rule="evenodd" d="M9.00005 16.1998C12.9765 16.1998 16.2 12.9763 16.2 8.9998C16.2 5.02335 12.9765 1.7998 9.00005 1.7998C5.0236 1.7998 1.80005 5.02335 1.80005 8.9998C1.80005 12.9763 5.0236 16.1998 9.00005 16.1998ZM7.83645 6.56341C7.48497 6.21194 6.91512 6.21194 6.56365 6.56341C6.21218 6.91488 6.21218 7.48473 6.56365 7.8362L7.72726 8.9998L6.56365 10.1634C6.21218 10.5149 6.21218 11.0847 6.56365 11.4362C6.91512 11.7877 7.48497 11.7877 7.83644 11.4362L9.00005 10.2726L10.1637 11.4362C10.5151 11.7877 11.085 11.7877 11.4364 11.4362C11.7879 11.0847 11.7879 10.5149 11.4364 10.1634L10.2728 8.9998L11.4364 7.8362C11.7879 7.48473 11.7879 6.91488 11.4364 6.56341C11.085 6.21194 10.5151 6.21194 10.1637 6.56341L9.00005 7.72701L7.83645 6.56341Z" fill="black"/>
</svg>
