<svg width="18" height="18" viewBox="0 0 18 18" fill="none" xmlns="http://www.w3.org/2000/svg">
<path fill-rule="evenodd" clip-rule="evenodd" d="M11.4697 3.96967C11.7626 3.67678 12.2374 3.67678 12.5303 3.96967L17.0303 8.46967C17.3232 8.76256 17.3232 9.23744 17.0303 9.53033L12.5303 14.0303C12.2374 14.3232 11.7626 14.3232 11.4697 14.0303C11.1768 13.7374 11.1768 13.2626 11.4697 12.9697L15.4393 9L11.4697 5.03033C11.1768 4.73744 11.1768 4.26256 11.4697 3.96967Z" fill="black"/>
<path fill-rule="evenodd" clip-rule="evenodd" d="M6.53033 3.96967C6.82322 4.26256 6.82322 4.73744 6.53033 5.03033L2.56066 9L6.53033 12.9697C6.82322 13.2626 6.82322 13.7374 6.53033 14.0303C6.23744 14.3232 5.76256 14.3232 5.46967 14.0303L0.96967 9.53033C0.676777 9.23744 0.676777 8.76256 0.96967 8.46967L5.46967 3.96967C5.76256 3.67678 6.23744 3.67678 6.53033 3.96967Z" fill="black"/>
</svg>
