<svg width="18" height="18" viewBox="0 0 18 18" fill="none" xmlns="http://www.w3.org/2000/svg">
<path fill-rule="evenodd" clip-rule="evenodd" d="M3.10765 1.64329C3.51954 1.2314 4.07819 1 4.6607 1H9.72289C9.92181 1 10.1126 1.07902 10.2532 1.21967L15.3154 6.28187C15.4561 6.42252 15.5351 6.61328 15.5351 6.8122V14.7671C15.5351 15.3496 15.3037 15.9082 14.8918 16.3201C14.4799 16.732 13.9213 16.9634 13.3388 16.9634H4.6607C4.07819 16.9634 3.51954 16.732 3.10765 16.3201C2.69576 15.9082 2.46436 15.3496 2.46436 14.7671V3.19634C2.46436 2.61384 2.69576 2.05519 3.10765 1.64329ZM4.6607 2.5C4.47602 2.5 4.2989 2.57336 4.16831 2.70395C4.03772 2.83454 3.96436 3.01166 3.96436 3.19634V14.7671C3.96436 14.9518 4.03772 15.1289 4.16831 15.2595C4.2989 15.3901 4.47602 15.4634 4.6607 15.4634H13.3388C13.5234 15.4634 13.7005 15.3901 13.8311 15.2595C13.9617 15.1289 14.0351 14.9518 14.0351 14.7671V7.12286L9.41223 2.5H4.6607Z" fill="black"/>
<path fill-rule="evenodd" clip-rule="evenodd" d="M9.72339 1C10.1376 1 10.4734 1.33579 10.4734 1.75V6.06283H14.7862C15.2004 6.06283 15.5362 6.39862 15.5362 6.81283C15.5362 7.22704 15.2004 7.56283 14.7862 7.56283H9.72339C9.30918 7.56283 8.97339 7.22704 8.97339 6.81283V1.75C8.97339 1.33579 9.30918 1 9.72339 1Z" fill="black"/>
</svg>
