<svg width="18" height="18" viewBox="0 0 18 18" fill="none" xmlns="http://www.w3.org/2000/svg">
<path fill-rule="evenodd" clip-rule="evenodd" d="M7.5 14.2998C7.5 13.5169 8.12603 12.7998 9 12.7998C9.87397 12.7998 10.5 13.5169 10.5 14.2998C10.5 15.0827 9.87397 15.7998 9 15.7998C8.12603 15.7998 7.5 15.0827 7.5 14.2998Z" fill="black"/>
<path fill-rule="evenodd" clip-rule="evenodd" d="M7.5 9.02441C7.5 8.24153 8.12603 7.52441 9 7.52441C9.87397 7.52441 10.5 8.24153 10.5 9.02441C10.5 9.8073 9.87397 10.5244 9 10.5244C8.12603 10.5244 7.5 9.8073 7.5 9.02441Z" fill="black"/>
<path fill-rule="evenodd" clip-rule="evenodd" d="M7.5 3.7002C7.5 2.91731 8.12603 2.2002 9 2.2002C9.87397 2.2002 10.5 2.91731 10.5 3.7002C10.5 4.48308 9.87397 5.2002 9 5.2002C8.12603 5.2002 7.5 4.48308 7.5 3.7002Z" fill="black"/>
</svg>
