<svg width="18" height="18" viewBox="0 0 18 18" fill="none" xmlns="http://www.w3.org/2000/svg">
<path fill-rule="evenodd" clip-rule="evenodd" d="M5.24756 13.5C5.24756 13.0858 5.58335 12.75 5.99756 12.75H15.7476C16.1618 12.75 16.4976 13.0858 16.4976 13.5C16.4976 13.9142 16.1618 14.25 15.7476 14.25H5.99756C5.58335 14.25 5.24756 13.9142 5.24756 13.5Z" fill="black"/>
<path fill-rule="evenodd" clip-rule="evenodd" d="M1.47485 13.5001C1.47485 13.0721 1.82183 12.7251 2.24985 12.7251H2.25885C2.68687 12.7251 3.03385 13.0721 3.03385 13.5001C3.03385 13.9281 2.68687 14.2751 2.25885 14.2751H2.24985C1.82183 14.2751 1.47485 13.9281 1.47485 13.5001Z" fill="black"/>
<path fill-rule="evenodd" clip-rule="evenodd" d="M5.24756 9C5.24756 8.58579 5.58335 8.25 5.99756 8.25H15.7476C16.1618 8.25 16.4976 8.58579 16.4976 9C16.4976 9.41421 16.1618 9.75 15.7476 9.75H5.99756C5.58335 9.75 5.24756 9.41421 5.24756 9Z" fill="black"/>
<path fill-rule="evenodd" clip-rule="evenodd" d="M1.47485 9.0001C1.47485 8.57208 1.82183 8.2251 2.24985 8.2251H2.25885C2.68687 8.2251 3.03385 8.57208 3.03385 9.0001C3.03385 9.42812 2.68687 9.7751 2.25885 9.7751H2.24985C1.82183 9.7751 1.47485 9.42812 1.47485 9.0001Z" fill="black"/>
<path fill-rule="evenodd" clip-rule="evenodd" d="M5.24756 4.5C5.24756 4.08579 5.58335 3.75 5.99756 3.75H15.7476C16.1618 3.75 16.4976 4.08579 16.4976 4.5C16.4976 4.91421 16.1618 5.25 15.7476 5.25H5.99756C5.58335 5.25 5.24756 4.91421 5.24756 4.5Z" fill="black"/>
<path fill-rule="evenodd" clip-rule="evenodd" d="M1.4751 4.5001C1.4751 4.07208 1.82208 3.7251 2.2501 3.7251H2.2591C2.68712 3.7251 3.0341 4.07208 3.0341 4.5001C3.0341 4.92812 2.68712 5.2751 2.2591 5.2751H2.2501C1.82208 5.2751 1.4751 4.92812 1.4751 4.5001Z" fill="black"/>
</svg>
