<svg width="18" height="18" viewBox="0 0 18 18" fill="none" xmlns="http://www.w3.org/2000/svg">
<path d="M9.00678 10.5C9.83521 10.5 10.5068 9.82843 10.5068 9C10.5068 8.17157 9.83521 7.5 9.00678 7.5C8.17835 7.5 7.50678 8.17157 7.50678 9C7.50678 9.82843 8.17835 10.5 9.00678 10.5Z" fill="black"/>
<path fill-rule="evenodd" clip-rule="evenodd" d="M1.8501 9.00003C2.80579 5.95718 5.64851 3.75 9.00675 3.75C12.365 3.75 15.2077 5.95716 16.1634 8.99997C15.2077 12.0428 12.365 14.25 9.00674 14.25C5.64852 14.25 2.8058 12.0428 1.8501 9.00003ZM12.0068 9C12.0068 10.6569 10.6636 12 9.00678 12C7.34993 12 6.00678 10.6569 6.00678 9C6.00678 7.34315 7.34993 6 9.00678 6C10.6636 6 12.0068 7.34315 12.0068 9Z" fill="black"/>
</svg>
