<svg width="18" height="18" viewBox="0 0 18 18" fill="none" xmlns="http://www.w3.org/2000/svg">
<path fill-rule="evenodd" clip-rule="evenodd" d="M13.0859 7.91425L14.25 6.75019L14.25 6.75015C14.3296 6.67052 14.3694 6.6307 14.4015 6.59544C15.0949 5.83263 15.0949 4.66774 14.4015 3.90493C14.3694 3.86967 14.3296 3.82985 14.25 3.75023L14.25 3.75019C14.1703 3.67053 14.1305 3.63071 14.0952 3.59865C13.3324 2.90527 12.1675 2.90527 11.4047 3.59865C11.3694 3.63071 11.3296 3.67053 11.25 3.75018L10.0679 4.9322C10.7814 6.17725 11.8236 7.21107 13.0859 7.91425ZM8.61328 6.38687L4.41766 10.5825C4.08532 10.9148 3.91915 11.081 3.79673 11.2791C3.6743 11.4772 3.59999 11.7001 3.45136 12.146L2.56619 14.8015C2.42821 15.2155 2.35922 15.4224 2.46847 15.5317C2.57772 15.6409 2.7847 15.5719 3.19865 15.434L5.85415 14.5488L5.85417 14.5488C6.30004 14.4002 6.52298 14.3258 6.72106 14.2034C6.91915 14.081 7.08532 13.9148 7.41766 13.5825L11.6274 9.37278C10.4163 8.60466 9.38879 7.58425 8.61328 6.38687Z" fill="black"/>
</svg>
