<svg width="18" height="18" viewBox="0 0 18 18" fill="none" xmlns="http://www.w3.org/2000/svg">
<path d="M6.7251 1.6001C6.21423 1.6001 5.8001 2.01423 5.8001 2.5251C5.8001 3.03596 6.21423 3.4501 6.7251 3.4501H8.5751C9.08596 3.4501 9.5001 3.03596 9.5001 2.5251C9.5001 2.01423 9.08596 1.6001 8.5751 1.6001H6.7251Z" fill="black"/>
<path d="M2.1001 4.3751C2.1001 3.35337 2.92837 2.5251 3.9501 2.5251C3.9501 4.05769 5.19251 5.3001 6.7251 5.3001H8.5751C10.1077 5.3001 11.3501 4.05769 11.3501 2.5251C12.3718 2.5251 13.2001 3.35337 13.2001 4.3751V9.9251H8.95824L10.1542 8.72917C10.5154 8.36794 10.5154 7.78226 10.1542 7.42102C9.79294 7.05979 9.20726 7.05979 8.84602 7.42102L6.07102 10.196C5.70979 10.5573 5.70979 11.1429 6.07102 11.5042L8.84602 14.2792C9.20726 14.6404 9.79294 14.6404 10.1542 14.2792C10.5154 13.9179 10.5154 13.3323 10.1542 12.971L8.95824 11.7751H13.2001V14.5501C13.2001 15.5718 12.3718 16.4001 11.3501 16.4001H3.9501C2.92837 16.4001 2.1001 15.5718 2.1001 14.5501V4.3751Z" fill="black"/>
<path d="M13.2001 9.9251H15.0501C15.561 9.9251 15.9751 10.3392 15.9751 10.8501C15.9751 11.361 15.561 11.7751 15.0501 11.7751H13.2001V9.9251Z" fill="black"/>
</svg>
