<svg width="22" height="22" viewBox="0 0 22 22" fill="none" xmlns="http://www.w3.org/2000/svg">
<path d="M18.5119 4.85L12.5719 1.42C11.6019 0.86 10.4019 0.86 9.42188 1.42L3.49187 4.85C2.52187 5.41 1.92188 6.45 1.92188 7.58V14.42C1.92188 15.54 2.52187 16.58 3.49187 17.15L9.43188 20.58C10.4019 21.14 11.6019 21.14 12.5819 20.58L18.5219 17.15C19.4919 16.59 20.0919 15.55 20.0919 14.42V7.58C20.0819 6.45 19.4819 5.42 18.5119 4.85ZM13.2519 12.4L12.2119 13L11.1719 13.6C9.84187 14.37 8.75187 13.74 8.75187 12.2V11V9.8C8.75187 8.26 9.84187 7.63 11.1719 8.4L12.2119 9L13.2519 9.6C14.5819 10.37 14.5819 11.63 13.2519 12.4Z" fill="#292D32"/>
</svg>
