<svg width="20" height="20" viewBox="0 0 20 20" fill="none" xmlns="http://www.w3.org/2000/svg">
<path fill-rule="evenodd" clip-rule="evenodd" d="M0.527277 2.76511C0 3.82035 0 5.1969 0 7.95V12.05C0 14.8031 0 16.1796 0.527277 17.2349C1.01124 18.2035 1.79654 18.9888 2.76511 19.4727C3.82035 20 5.1969 20 7.95 20H12.05C14.8031 20 16.1796 20 17.2349 19.4727C18.2035 18.9888 18.9888 18.2035 19.4727 17.2349C20 16.1796 20 14.8031 20 12.05V7.95C20 5.1969 20 3.82035 19.4727 2.76511C18.9888 1.79654 18.2035 1.01124 17.2349 0.527277C16.1796 0 14.8031 0 12.05 0H7.95C5.1969 0 3.82035 0 2.76511 0.527277C1.79654 1.01124 1.01124 1.79654 0.527277 2.76511ZM7 12.608V7.39268C7 6.31908 8.11227 5.65422 9 6.18829L11.1671 7.49077L13.3342 8.7987C14.2219 9.33277 14.2219 10.668 13.3342 11.202L11.1671 12.51L9 13.8124C8.11227 14.3465 7 13.6762 7 12.608Z" fill="#D9D9D9"/>
</svg>
