<svg width="18" height="18" viewBox="0 0 18 18" fill="none" xmlns="http://www.w3.org/2000/svg">
<path fill-rule="evenodd" clip-rule="evenodd" d="M9.00005 2.5498C5.43781 2.5498 2.55005 5.43757 2.55005 8.9998C2.55005 12.562 5.43781 15.4498 9.00005 15.4498C12.5623 15.4498 15.45 12.562 15.45 8.9998C15.45 5.43757 12.5623 2.5498 9.00005 2.5498ZM1.05005 8.9998C1.05005 4.60914 4.60938 1.0498 9.00005 1.0498C13.3907 1.0498 16.95 4.60914 16.95 8.9998C16.95 13.3905 13.3907 16.9498 9.00005 16.9498C4.60938 16.9498 1.05005 13.3905 1.05005 8.9998Z" fill="black"/>
<path fill-rule="evenodd" clip-rule="evenodd" d="M8.99902 8.25C9.41324 8.25 9.74902 8.58579 9.74902 9V11.8804C9.74902 12.2946 9.41324 12.6304 8.99902 12.6304C8.58481 12.6304 8.24902 12.2946 8.24902 11.8804V9C8.24902 8.58579 8.58481 8.25 8.99902 8.25Z" fill="black"/>
<path fill-rule="evenodd" clip-rule="evenodd" d="M8.24902 6.12012C8.24902 5.7059 8.58481 5.37012 8.99902 5.37012H9.00578C9.41999 5.37012 9.75578 5.7059 9.75578 6.12012C9.75578 6.53433 9.41999 6.87012 9.00578 6.87012H8.99902C8.58481 6.87012 8.24902 6.53433 8.24902 6.12012Z" fill="black"/>
</svg>
