<svg width="18" height="18" viewBox="0 0 18 18" fill="none" xmlns="http://www.w3.org/2000/svg">
<path fill-rule="evenodd" clip-rule="evenodd" d="M13.875 11.2002C14.3168 11.2002 14.675 11.5584 14.675 12.0002V13.0752H15.75C16.1918 13.0752 16.55 13.4334 16.55 13.8752C16.55 14.317 16.1918 14.6752 15.75 14.6752H14.675V15.7502C14.675 16.192 14.3168 16.5502 13.875 16.5502C13.4331 16.5502 13.075 16.192 13.075 15.7502V14.6752H12C11.5581 14.6752 11.2 14.317 11.2 13.8752C11.2 13.4334 11.5581 13.0752 12 13.0752H13.075V12.0002C13.075 11.5584 13.4331 11.2002 13.875 11.2002Z" fill="black"/>
<path fill-rule="evenodd" clip-rule="evenodd" d="M1.44995 3.7502C1.44995 3.30837 1.80812 2.9502 2.24995 2.9502H15.75C16.1918 2.9502 16.55 3.30837 16.55 3.7502C16.55 4.19202 16.1918 4.5502 15.75 4.5502H2.24995C1.80812 4.5502 1.44995 4.19202 1.44995 3.7502ZM1.44995 9.0002C1.44995 8.55837 1.80812 8.2002 2.24995 8.2002H15.75C16.1918 8.2002 16.55 8.55837 16.55 9.0002C16.55 9.44202 16.1918 9.8002 15.75 9.8002H2.24995C1.80812 9.8002 1.44995 9.44202 1.44995 9.0002ZM1.44995 14.2502C1.44995 13.8084 1.80812 13.4502 2.24995 13.4502H8.99995C9.44178 13.4502 9.79995 13.8084 9.79995 14.2502C9.79995 14.692 9.44178 15.0502 8.99995 15.0502H2.24995C1.80812 15.0502 1.44995 14.692 1.44995 14.2502Z" fill="black"/>
</svg>
