<svg width="18" height="18" viewBox="0 0 18 18" fill="none" xmlns="http://www.w3.org/2000/svg">
<path fill-rule="evenodd" clip-rule="evenodd" d="M12.0188 12.0188C12.3116 11.726 12.7865 11.726 13.0794 12.0188L13.8749 12.8143L14.6704 12.0188C14.9633 11.726 15.4382 11.726 15.7311 12.0188C16.024 12.3117 16.024 12.7866 15.7311 13.0795L14.9356 13.875L15.7311 14.6705C16.024 14.9634 16.024 15.4383 15.7311 15.7312C15.4382 16.024 14.9633 16.024 14.6704 15.7312L13.8749 14.9357L13.0794 15.7312C12.7865 16.024 12.3116 16.024 12.0188 15.7312C11.7259 15.4383 11.7259 14.9634 12.0188 14.6705L12.8142 13.875L12.0188 13.0795C11.7259 12.7866 11.7259 12.3117 12.0188 12.0188Z" fill="black"/>
<path fill-rule="evenodd" clip-rule="evenodd" d="M1.5 3.75C1.5 3.33579 1.83579 3 2.25 3H15.75C16.1642 3 16.5 3.33579 16.5 3.75C16.5 4.16421 16.1642 4.5 15.75 4.5H2.25C1.83579 4.5 1.5 4.16421 1.5 3.75ZM1.5 9C1.5 8.58579 1.83579 8.25 2.25 8.25H15.75C16.1642 8.25 16.5 8.58579 16.5 9C16.5 9.41421 16.1642 9.75 15.75 9.75H2.25C1.83579 9.75 1.5 9.41421 1.5 9ZM1.5 14.25C1.5 13.8358 1.83579 13.5 2.25 13.5H9C9.41421 13.5 9.75 13.8358 9.75 14.25C9.75 14.6642 9.41421 15 9 15H2.25C1.83579 15 1.5 14.6642 1.5 14.25Z" fill="black"/>
</svg>
