<svg width="18" height="18" viewBox="0 0 18 18" fill="none" xmlns="http://www.w3.org/2000/svg">
<path fill-rule="evenodd" clip-rule="evenodd" d="M1.47998 13.4995C1.47998 13.0742 1.82472 12.7295 2.24998 12.7295H15.7499C16.1751 12.7295 16.5199 13.0742 16.5199 13.4995C16.5199 13.9248 16.1751 14.2695 15.7499 14.2695H2.24998C1.82472 14.2695 1.47998 13.9248 1.47998 13.4995Z" fill="black"/>
<path fill-rule="evenodd" clip-rule="evenodd" d="M1.47998 8.99949C1.47998 8.57423 1.82472 8.22949 2.24998 8.22949H15.7499C16.1751 8.22949 16.5199 8.57423 16.5199 8.99949C16.5199 9.42475 16.1751 9.76949 15.7499 9.76949H2.24998C1.82472 9.76949 1.47998 9.42475 1.47998 8.99949Z" fill="black"/>
<path fill-rule="evenodd" clip-rule="evenodd" d="M1.47998 4.49949C1.47998 4.07423 1.82472 3.72949 2.24998 3.72949H15.7499C16.1751 3.72949 16.5199 4.07423 16.5199 4.49949C16.5199 4.92475 16.1751 5.26949 15.7499 5.26949H2.24998C1.82472 5.26949 1.47998 4.92475 1.47998 4.49949Z" fill="black"/>
</svg>
