<svg width="26" height="26" viewBox="0 0 26 26" fill="none" xmlns="http://www.w3.org/2000/svg">
<path d="M13 0C10.7891 0 8.87891 0.91797 7.6875 2.40625C6.49609 3.89453 6 5.82422 6 7.90625V9H9V7.90625C9 6.32813 9.39063 5.08594 10.0312 4.28125C10.6719 3.47656 11.543 3 13 3C14.4609 3 15.3281 3.44922 15.9687 4.25C16.6094 5.05078 17 6.30859 17 7.90625V9H20V7.90625C20 5.8125 19.4727 3.86328 18.2812 2.375C17.0898 0.88672 15.207 0 13 0ZM6 10C4.34375 10 3 11.3437 3 13V23C3 24.6562 4.34375 26 6 26H20C21.6562 26 23 24.6562 23 23V13C23 11.3437 21.6562 10 20 10H6Z" fill="black"/>
</svg>
