<svg width="18" height="18" viewBox="0 0 18 18" fill="none" xmlns="http://www.w3.org/2000/svg">
<path fill-rule="evenodd" clip-rule="evenodd" d="M6.02612 11.838C5.75454 12.1015 5.32264 12.1015 5.05106 11.838L2.2545 9.12367C1.97708 8.85441 1.97046 8.41125 2.23972 8.13383C2.50897 7.85641 2.95214 7.84979 3.22956 8.11905L4.83859 9.68074L4.83859 4.00707C4.83859 3.62047 5.15199 3.30707 5.53859 3.30707C5.92519 3.30707 6.23859 3.62047 6.23859 4.00707L6.23859 9.68074L7.84763 8.11905C8.12504 7.84979 8.56821 7.85641 8.83746 8.13383C9.10672 8.41125 9.1001 8.85441 8.82269 9.12367L6.02612 11.838Z" fill="black"/>
<path fill-rule="evenodd" clip-rule="evenodd" d="M16.8242 13.1252C16.8242 13.5118 16.5108 13.8252 16.1242 13.8252L7.30279 13.8252C6.91619 13.8252 6.60279 13.5118 6.60279 13.1252C6.60279 12.7386 6.91619 12.4252 7.30279 12.4252L16.1242 12.4252C16.5108 12.4252 16.8242 12.7386 16.8242 13.1252ZM16.8242 10.3286C16.8242 10.7152 16.5108 11.0286 16.1242 11.0286L10.0171 11.0286C9.63048 11.0286 9.31708 10.7152 9.31708 10.3286C9.31708 9.94203 9.63048 9.62863 10.0171 9.62863L16.1242 9.62863C16.5108 9.62863 16.8242 9.94203 16.8242 10.3286ZM16.8242 7.53207C16.8242 7.91867 16.5108 8.23207 16.1242 8.23207L12.0528 8.23207C11.6662 8.23207 11.3528 7.91867 11.3528 7.53207C11.3528 7.14547 11.6662 6.83207 12.0528 6.83207L16.1242 6.83207C16.5108 6.83207 16.8242 7.14547 16.8242 7.53207Z" fill="black"/>
</svg>
