<svg width="22" height="22" viewBox="0 0 22 22" fill="none" xmlns="http://www.w3.org/2000/svg">
<path fill-rule="evenodd" clip-rule="evenodd" d="M1.52728 3.76511C1 4.82035 1 6.1969 1 8.95V13.05C1 15.8031 1 17.1796 1.52728 18.2349C2.01124 19.2035 2.79654 19.9888 3.76511 20.4727C4.82035 21 6.1969 21 8.95 21H13.05C15.8031 21 17.1796 21 18.2349 20.4727C19.2035 19.9888 19.9888 19.2035 20.4727 18.2349C21 17.1796 21 15.8031 21 13.05V8.95C21 6.1969 21 4.82035 20.4727 3.76511C19.9888 2.79654 19.2035 2.01124 18.2349 1.52728C17.1796 1 15.8031 1 13.05 1H8.95C6.1969 1 4.82035 1 3.76511 1.52728C2.79654 2.01124 2.01124 2.79654 1.52728 3.76511ZM8 13.608V8.39268C8 7.31908 9.11227 6.65422 10 7.18829L12.1671 8.49077L14.3342 9.7987C15.2219 10.3328 15.2219 11.668 14.3342 12.202L12.1671 13.51L10 14.8124C9.11227 15.3465 8 14.6762 8 13.608Z" fill="#D9D9D9"/>
</svg>
