<svg width="18" height="18" viewBox="0 0 18 18" fill="none" xmlns="http://www.w3.org/2000/svg">
<path fill-rule="evenodd" clip-rule="evenodd" d="M9.00005 16.1998C12.9765 16.1998 16.2 12.9763 16.2 8.9998C16.2 5.02335 12.9765 1.7998 9.00005 1.7998C5.0236 1.7998 1.80005 5.02335 1.80005 8.9998C1.80005 12.9763 5.0236 16.1998 9.00005 16.1998ZM9.90005 6.2998C9.90005 5.80275 9.4971 5.3998 9.00005 5.3998C8.50299 5.3998 8.10005 5.80275 8.10005 6.2998V8.0998H6.30005C5.80299 8.0998 5.40005 8.50275 5.40005 8.9998C5.40005 9.49686 5.80299 9.8998 6.30005 9.8998H8.10005V11.6998C8.10005 12.1969 8.50299 12.5998 9.00005 12.5998C9.4971 12.5998 9.90005 12.1969 9.90005 11.6998V9.8998H11.7C12.1971 9.8998 12.6 9.49686 12.6 8.9998C12.6 8.50275 12.1971 8.0998 11.7 8.0998H9.90005V6.2998Z" fill="black"/>
</svg>
