<svg width="74" height="74" viewBox="0 0 74 74" fill="none" xmlns="http://www.w3.org/2000/svg">
<g clip-path="url(#clip0_530_43265)">
<path d="M63.6558 40.9263C61.0766 40.9398 58.835 41.562 56.958 42.4818C56.2693 41.1156 55.5807 39.8983 55.4591 39.0055C55.3241 37.964 55.162 37.3282 55.3241 36.0838C55.4861 34.8393 56.2153 33.0673 56.2018 32.9321C56.1883 32.7968 56.0398 32.1611 54.5544 32.1475C53.069 32.134 51.7861 32.4316 51.6376 32.8239C51.489 33.2161 51.2055 34.1089 51.0164 35.0287C50.7599 36.3813 48.0456 41.2103 46.4927 43.7398C45.9931 42.7524 45.5609 41.8867 45.4664 41.1968C45.3314 40.1553 45.1693 39.5195 45.3314 38.2751C45.4934 37.0306 46.2226 35.2586 46.2091 35.1234C46.1956 34.9881 46.0471 34.3524 44.5617 34.3388C43.0763 34.3253 41.7934 34.6229 41.6449 35.0152C41.4963 35.4074 41.3343 36.3272 41.0237 37.22C40.7131 38.1127 37.1077 46.1746 36.1624 48.2577C35.6763 49.3263 35.2577 50.1784 34.9606 50.7601C34.9606 50.7601 34.9471 50.8007 34.9066 50.8683C34.65 51.3688 34.5015 51.6393 34.5015 51.6393C34.5015 51.6393 34.5015 51.6393 34.5015 51.6528C34.2989 52.0181 34.0828 52.3562 33.9748 52.3562C33.8938 52.3562 33.7453 51.3823 34.0018 50.0567C34.542 47.2567 35.8248 42.9012 35.8113 42.7524C35.8113 42.6712 36.0544 41.9137 34.9741 41.5214C33.9208 41.1292 33.5427 41.7784 33.4482 41.7784C33.3536 41.7784 33.2861 42.0084 33.2861 42.0084C33.2861 42.0084 34.4609 37.1118 31.0445 37.1118C28.9109 37.1118 25.9672 39.4519 24.5088 41.562C23.5905 42.0625 21.6325 43.1311 19.5394 44.2809C18.7427 44.7272 17.919 45.1736 17.1493 45.5929C17.0953 45.5388 17.0412 45.4712 16.9872 45.4171C12.8551 40.9939 5.21204 37.8693 5.53613 31.9311C5.65766 29.7669 6.40036 24.0857 20.2146 17.1871C31.5847 11.5736 40.6321 13.1292 42.1985 16.5784C44.4401 21.5021 37.3507 30.6461 25.6026 31.9717C21.1193 32.4722 18.7697 30.7408 18.1755 30.0915C17.5544 29.4152 17.4599 29.3746 17.2303 29.5098C16.8522 29.7127 17.0953 30.3214 17.2303 30.6731C17.5814 31.5929 19.0263 33.2161 21.4704 34.0142C23.631 34.7176 28.8839 35.1098 35.2442 32.648C42.3606 29.8886 47.9241 22.219 46.2901 15.7939C44.6562 9.2741 33.8533 7.12337 23.631 10.762C17.5544 12.9263 10.9646 16.335 6.22482 20.7717C0.593794 26.047 -0.297446 30.6326 0.0671526 32.5533C1.37701 39.3707 10.762 43.8074 14.5161 47.0944C14.327 47.2026 14.1515 47.2973 14.0029 47.3784C12.1259 48.3118 4.96898 52.0586 3.1865 56.0219C1.16095 60.5127 3.51058 63.7321 5.0635 64.1649C9.88431 65.504 14.8401 63.0963 17.5004 59.1195C20.1606 55.1427 19.8365 49.9755 18.6077 47.6084C18.5942 47.5813 18.5807 47.5543 18.5536 47.5272C19.0398 47.2432 19.5394 46.9456 20.0255 46.6615C20.9843 46.0934 21.9296 45.5659 22.7398 45.133C22.2807 46.391 21.9431 47.8925 21.781 50.0567C21.5785 52.5997 22.6182 55.9002 23.9821 57.1987C24.5898 57.7668 25.3055 57.7804 25.7646 57.7804C27.358 57.7804 28.0737 56.4548 28.8704 54.8857C29.8427 52.9649 30.7204 50.733 30.7204 50.733C30.7204 50.733 29.6266 56.7659 32.5974 56.7659C33.6777 56.7659 34.7715 55.3591 35.2577 54.6422C35.2577 54.6557 35.2577 54.6557 35.2577 54.6557C35.2577 54.6557 35.2847 54.6152 35.3387 54.5205C35.4467 54.3446 35.5142 54.2364 35.5142 54.2364C35.5142 54.2364 35.5142 54.2229 35.5142 54.2094C35.9463 53.4519 36.9186 51.734 38.3635 48.8799C40.227 45.2007 42.023 40.6016 42.023 40.6016C42.023 40.6016 42.185 41.7243 42.7387 43.591C43.0628 44.6867 43.738 45.8905 44.2781 47.0538C43.846 47.6625 43.5759 48.0007 43.5759 48.0007C43.5759 48.0007 43.5759 48.0007 43.5894 48.0142C43.2383 48.4741 42.8602 48.9746 42.4416 49.4615C40.9697 51.22 39.2142 53.2354 38.9712 53.8171C38.6876 54.5069 38.7551 55.0074 39.2953 55.4132C39.6869 55.7108 40.389 55.7514 41.1047 55.7108C42.4281 55.6161 43.3599 55.2915 43.819 55.0886C44.5347 54.8316 45.3719 54.4393 46.1551 53.8577C47.6 52.7891 48.4777 51.2606 48.3967 49.2451C48.3562 48.1359 47.9916 47.0268 47.546 45.9852C47.681 45.7958 47.8026 45.6065 47.9376 45.4171C50.2197 42.076 51.9887 38.4103 51.9887 38.4103C51.9887 38.4103 52.1507 39.533 52.7044 41.3997C52.9745 42.3466 53.5281 43.3746 54.0142 44.3755C51.8672 46.1205 50.5438 48.1495 50.0712 49.4751C49.2204 51.9369 49.8821 53.0461 51.138 53.3031C51.7051 53.4248 52.5153 53.1543 53.1095 52.8973C53.8657 52.6538 54.7569 52.2345 55.6077 51.6123C57.0526 50.5437 58.4434 49.0557 58.3624 47.0403C58.3219 46.1205 58.0788 45.2142 57.7412 44.335C59.5642 43.5775 61.9139 43.1582 64.9117 43.5098C71.3394 44.2673 72.6088 48.2847 72.3657 49.9755C72.1226 51.6664 70.7723 52.5862 70.3266 52.8702C69.881 53.1543 69.7325 53.249 69.773 53.4519C69.827 53.7495 70.0431 53.7359 70.4212 53.6818C70.9478 53.5871 73.7971 52.3156 73.9186 49.2045C74.1212 45.2277 70.3401 40.8857 63.6558 40.9263ZM14.0704 57.6722C11.9369 59.9987 8.96606 60.878 7.68321 60.134C6.30584 59.3359 6.84599 55.9002 9.46569 53.4383C11.0591 51.9369 13.1117 50.5437 14.4755 49.6915C14.7861 49.5021 15.2453 49.2316 15.7989 48.8934C15.8934 48.8393 15.9474 48.8123 15.9474 48.8123C16.0555 48.7446 16.1635 48.677 16.2715 48.6094C17.2303 52.1263 16.312 55.2239 14.0704 57.6722ZM29.5996 47.0944C28.8569 48.9069 27.304 53.5466 26.3588 53.2896C25.5485 53.0731 25.0489 49.5562 26.1967 46.0799C26.7774 44.335 28.0062 42.2519 28.7219 41.4403C29.8832 40.1417 31.1661 39.7089 31.4766 40.2364C31.8682 40.9263 30.0588 45.9582 29.5996 47.0944ZM42.4146 53.2354C42.104 53.3978 41.8069 53.506 41.6719 53.4248C41.5774 53.3707 41.8069 53.1543 41.8069 53.1543C41.8069 53.1543 43.4139 51.4229 44.0485 50.6383C44.4131 50.1784 44.8453 49.6374 45.3044 49.0287C45.3044 49.0828 45.3044 49.1504 45.3044 49.2045C45.3044 51.2741 43.3058 52.6673 42.4146 53.2354ZM52.2993 50.9765C52.0697 50.8142 52.1102 50.2731 52.8799 48.5823C53.177 47.9195 53.8792 46.8103 55.081 45.7417C55.2161 46.1746 55.3106 46.5939 55.2971 46.9862C55.2836 49.5968 53.4201 50.5707 52.2993 50.9765Z" fill="#CD6799"/>
</g>
<defs>
<clipPath id="clip0_530_43265">
<rect width="74" height="74" fill="white"/>
</clipPath>
</defs>
</svg>
