<svg width="18" height="18" viewBox="0 0 18 18" fill="none" xmlns="http://www.w3.org/2000/svg">
<path fill-rule="evenodd" clip-rule="evenodd" d="M7.98447 3.9748C5.77188 3.9748 3.97822 5.76846 3.97822 7.98105C3.97822 10.1936 5.77188 11.9873 7.98447 11.9873C10.1971 11.9873 11.9907 10.1936 11.9907 7.98105C11.9907 5.76846 10.1971 3.9748 7.98447 3.9748ZM2.42822 7.98105C2.42822 4.91242 4.91584 2.4248 7.98447 2.4248C11.0531 2.4248 13.5407 4.91242 13.5407 7.98105C13.5407 11.0497 11.0531 13.5373 7.98447 13.5373C4.91584 13.5373 2.42822 11.0497 2.42822 7.98105Z" fill="#181818"/>
<path fill-rule="evenodd" clip-rule="evenodd" d="M15.2511 15.2478C14.9484 15.5505 14.4577 15.5505 14.155 15.2478L11.1548 12.2478C10.8521 11.9452 10.8521 11.4545 11.1548 11.1518C11.4574 10.8492 11.9481 10.8491 12.2508 11.1518L15.251 14.1518C15.5537 14.4544 15.5537 14.9451 15.2511 15.2478Z" fill="#181818"/>
</svg>
