<svg width="18" height="18" viewBox="0 0 18 18" fill="none" xmlns="http://www.w3.org/2000/svg">
<path fill-rule="evenodd" clip-rule="evenodd" d="M8.12495 2.1001C7.79826 2.1001 7.49961 2.28467 7.35351 2.57688L6.7294 3.8251H3.81245C3.33611 3.8251 2.94995 4.21125 2.94995 4.6876C2.94995 5.16394 3.33611 5.5501 3.81245 5.5501L3.81245 14.1751C3.81245 15.1278 4.58476 15.9001 5.53745 15.9001H12.4375C13.3901 15.9001 14.1625 15.1278 14.1625 14.1751V5.5501C14.6388 5.5501 15.025 5.16394 15.025 4.6876C15.025 4.21125 14.6388 3.8251 14.1625 3.8251H11.2455L10.6214 2.57688C10.4753 2.28467 10.1766 2.1001 9.84995 2.1001H8.12495ZM6.39995 7.2751C6.39995 6.79875 6.78611 6.4126 7.26245 6.4126C7.7388 6.4126 8.12495 6.79875 8.12495 7.2751V12.4501C8.12495 12.9264 7.7388 13.3126 7.26245 13.3126C6.78611 13.3126 6.39995 12.9264 6.39995 12.4501V7.2751ZM10.7125 6.4126C10.2361 6.4126 9.84995 6.79875 9.84995 7.2751V12.4501C9.84995 12.9264 10.2361 13.3126 10.7125 13.3126C11.1888 13.3126 11.575 12.9264 11.575 12.4501V7.2751C11.575 6.79875 11.1888 6.4126 10.7125 6.4126Z" fill="black"/>
</svg>
