<svg width="19" height="19" viewBox="0 0 19 19" fill="none" xmlns="http://www.w3.org/2000/svg">
<path fill-rule="evenodd" clip-rule="evenodd" d="M5.20063 1.5C5.21703 1.5 5.23349 1.5 5.25 1.5L12.7994 1.5C13.4642 1.49996 14.0371 1.49993 14.4958 1.56161C14.9875 1.62771 15.4587 1.77677 15.841 2.15901C16.2232 2.54126 16.3723 3.01252 16.4384 3.50416C16.5001 3.96291 16.5 4.53577 16.5 5.20064L16.5 11C16.5 11.4142 16.1642 11.75 15.75 11.75C15.3358 11.75 15 11.4142 15 11V5.25C15 4.52169 14.9984 4.05091 14.9518 3.70403C14.908 3.37873 14.8374 3.27677 14.7803 3.21967C14.7232 3.16258 14.6213 3.09197 14.296 3.04823C13.9491 3.0016 13.4783 3 12.75 3H5.25C4.52169 3 4.05091 3.0016 3.70403 3.04823C3.37873 3.09197 3.27677 3.16258 3.21967 3.21967C3.16258 3.27677 3.09197 3.37873 3.04823 3.70403C3.0016 4.05091 3 4.52169 3 5.25V12.75C3 13.4783 3.0016 13.9491 3.04823 14.296C3.09197 14.6213 3.16258 14.7232 3.21967 14.7803C3.27677 14.8374 3.37873 14.908 3.70403 14.9518C4.05091 14.9984 4.52169 15 5.25 15H11C11.4142 15 11.75 15.3358 11.75 15.75C11.75 16.1642 11.4142 16.5 11 16.5L5.20064 16.5C4.53577 16.5 3.96291 16.5001 3.50416 16.4384C3.01252 16.3723 2.54126 16.2232 2.15901 15.841C1.77677 15.4587 1.62771 14.9875 1.56161 14.4958C1.49993 14.0371 1.49996 13.4642 1.5 12.7994L1.5 5.25C1.5 5.23349 1.5 5.21703 1.5 5.20063C1.49996 4.53577 1.49993 3.96291 1.56161 3.50416C1.62771 3.01252 1.77677 2.54126 2.15901 2.15901C2.54126 1.77677 3.01252 1.62771 3.50416 1.56161C3.96291 1.49993 4.53577 1.49996 5.20063 1.5Z" fill="black"/>
<path fill-rule="evenodd" clip-rule="evenodd" d="M1.5 5.25C1.5 4.83579 1.83579 4.5 2.25 4.5L15.75 4.5C16.1642 4.5 16.5 4.83579 16.5 5.25C16.5 5.66421 16.1642 6 15.75 6L2.25 6C1.83579 6 1.5 5.66421 1.5 5.25Z" fill="black"/>
<path fill-rule="evenodd" clip-rule="evenodd" d="M4.5 8.625C4.5 8.21079 4.83579 7.875 5.25 7.875L12.75 7.875C13.1642 7.875 13.5 8.21079 13.5 8.625C13.5 9.03921 13.1642 9.375 12.75 9.375L5.25 9.375C4.83579 9.375 4.5 9.03921 4.5 8.625ZM4.5 12C4.5 11.5858 4.83579 11.25 5.25 11.25L9.75 11.25C10.1642 11.25 10.5 11.5858 10.5 12C10.5 12.4142 10.1642 12.75 9.75 12.75L5.25 12.75C4.83579 12.75 4.5 12.4142 4.5 12Z" fill="black"/>
<path fill-rule="evenodd" clip-rule="evenodd" d="M15.875 13.25C16.2892 13.25 16.625 13.5858 16.625 14V15.125H17.75C18.1642 15.125 18.5 15.4608 18.5 15.875C18.5 16.2892 18.1642 16.625 17.75 16.625H16.625V17.75C16.625 18.1642 16.2892 18.5 15.875 18.5C15.4608 18.5 15.125 18.1642 15.125 17.75V16.625H14C13.5858 16.625 13.25 16.2892 13.25 15.875C13.25 15.4608 13.5858 15.125 14 15.125H15.125V14C15.125 13.5858 15.4608 13.25 15.875 13.25Z" fill="black"/>
</svg>
