<svg width="18" height="18" viewBox="0 0 18 18" fill="none" xmlns="http://www.w3.org/2000/svg">
<g clip-path="url(#clip0_140_18176)">
<path fill-rule="evenodd" clip-rule="evenodd" d="M8.9999 2.4999C5.41005 2.4999 2.4999 5.41005 2.4999 8.9999C2.4999 12.5898 5.41005 15.4999 8.9999 15.4999C12.5898 15.4999 15.4999 12.5898 15.4999 8.9999C15.4999 5.41005 12.5898 2.4999 8.9999 2.4999ZM0.899902 8.9999C0.899902 4.5264 4.5264 0.899902 8.9999 0.899902C13.4734 0.899902 17.0999 4.5264 17.0999 8.9999C17.0999 13.4734 13.4734 17.0999 8.9999 17.0999C4.5264 17.0999 0.899902 13.4734 0.899902 8.9999Z" fill="black"/>
<path fill-rule="evenodd" clip-rule="evenodd" d="M8.99971 3.81982C9.44153 3.81982 9.79971 4.178 9.79971 4.61982V8.50594L12.2778 9.74501C12.673 9.9426 12.8332 10.4231 12.6356 10.8183C12.438 11.2135 11.9575 11.3737 11.5623 11.1761L8.64194 9.71591C8.37091 9.5804 8.19971 9.30339 8.19971 9.00037V4.61982C8.19971 4.178 8.55788 3.81982 8.99971 3.81982Z" fill="black"/>
</g>
<defs>
<clipPath id="clip0_140_18176">
<rect width="18" height="18" fill="white"/>
</clipPath>
</defs>
</svg>
