<svg width="86" height="86" viewBox="0 0 86 86" fill="none" xmlns="http://www.w3.org/2000/svg">
<path d="M6.42424 0C5.63383 0 5.04491 0.644105 5.11504 1.43135L11.7786 76.1737C11.8487 76.961 12.529 77.7781 13.291 77.9896L41.5675 85.8408C42.3292 86.0523 43.5754 86.0523 44.3374 85.8413L72.6998 77.9773C73.4615 77.766 74.1427 76.9489 74.2128 76.1619L80.8872 1.43135C80.9579 0.644105 80.3685 0 79.5781 0H6.42424ZM66.6965 17.1419C66.6336 17.8441 66.5246 19.063 66.4545 19.8503L66.2789 21.8113C66.2082 22.5983 66.1076 23.7238 66.0544 24.3122C66.0015 24.9008 65.9512 25.3822 65.942 25.3822C65.9331 25.3822 65.279 25.3822 64.4886 25.3822H44.4382C43.6478 25.3822 42.9945 25.3822 42.9859 25.3822C42.9773 25.3822 42.3234 25.3822 41.533 25.3822H30.9732C30.1828 25.3822 29.5939 26.0263 29.6641 26.8136L30.28 33.6987C30.3501 34.4856 31.0546 35.13 31.845 35.13H41.5333C42.3237 35.13 42.9776 35.13 42.9862 35.13C42.9948 35.13 43.6481 35.13 44.4385 35.13H61.0913C61.8817 35.13 63.1049 35.13 63.8094 35.13C64.5133 35.13 65.0375 35.7046 64.9737 36.4068C64.9096 37.1089 64.8001 38.3281 64.73 39.1151L62.7494 61.3119C62.6787 62.0991 62.5893 63.1048 62.5508 63.5468C62.5114 63.9886 61.8564 64.5229 61.0947 64.7342L44.3862 69.3671C43.6246 69.578 42.9917 69.7528 42.9799 69.7554C42.9681 69.758 42.3355 69.5869 41.5735 69.3757L24.8472 64.7345C24.0855 64.5232 23.4049 63.7061 23.3348 62.9188L22.2581 50.8343C22.188 50.0471 22.7775 49.403 23.5679 49.403H25.0944C25.8848 49.403 27.1782 49.403 27.9686 49.403H30.2449C31.0353 49.403 31.7392 50.0471 31.8099 50.8343L32.2321 55.5649C32.3023 56.3522 32.9837 57.1647 33.7471 57.3708L41.5709 59.4836C42.3338 59.6897 42.9609 59.8584 42.9644 59.8584C42.9678 59.8584 43.5947 59.6894 44.3578 59.4833L52.1957 57.3653C52.9585 57.1592 53.6405 56.3464 53.7112 55.5595L54.5611 46.0816C54.6318 45.2943 54.0429 44.6502 53.2525 44.6502H44.4385C43.6481 44.6502 42.9948 44.6502 42.9862 44.6502C42.9776 44.6502 42.3237 44.6502 41.5333 44.6502H23.1417C22.3513 44.6502 21.6474 44.0058 21.5772 43.2189L19.4917 19.85C19.4216 19.0628 19.3127 17.8441 19.2497 17.1417C19.1874 16.4395 19.7826 15.8649 20.573 15.8649H41.5333C42.3237 15.8649 42.9776 15.8649 42.9862 15.8649C42.9948 15.8649 43.6481 15.8649 44.4385 15.8649H65.3735C66.1636 15.8649 66.7592 16.4395 66.6965 17.1419Z" fill="black"/>
</svg>
