<svg width="80" height="80" viewBox="0 0 80 80" fill="none" xmlns="http://www.w3.org/2000/svg">
<g clip-path="url(#clip0_4417_109)">
<path fill-rule="evenodd" clip-rule="evenodd" d="M7.8125 0H72.1875C76.5022 0 80 3.49778 80 7.8125V72.1875C80 76.5022 76.5022 80 72.1875 80H7.8125C3.49778 80 0 76.5022 0 72.1875V7.8125C0 3.49778 3.49778 0 7.8125 0ZM49.5217 71.482V63.66C50.94 64.8497 52.4806 65.7419 54.1434 66.3366C55.8064 66.9314 57.4855 67.2288 59.1809 67.2288C60.1755 67.2288 61.0434 67.1392 61.7853 66.9598C62.527 66.7806 63.1466 66.5322 63.6438 66.2144C64.1409 65.8966 64.5119 65.5219 64.7564 65.09C65.0009 64.6581 65.1233 64.1897 65.1233 63.6845C65.1233 63 64.9277 62.3889 64.5364 61.8512C64.145 61.3134 63.6111 60.8164 62.9345 60.3602C62.2581 59.9039 61.4552 59.4639 60.5259 59.0402C59.5967 58.6164 58.5941 58.1847 57.5181 57.7447C54.7792 56.6039 52.7373 55.2106 51.3925 53.5648C50.0475 51.9189 49.375 49.9308 49.375 47.6005C49.375 45.7753 49.7419 44.2069 50.4755 42.8952C51.2091 41.5833 52.2075 40.5037 53.4709 39.6562C54.7345 38.8089 56.1977 38.1856 57.8605 37.7864C59.5233 37.3872 61.2839 37.1875 63.1425 37.1875C64.9683 37.1875 66.5864 37.2975 67.9966 37.5175C69.4067 37.7375 70.7069 38.0756 71.8969 38.5319V45.8406C71.31 45.4331 70.6702 45.0747 69.9773 44.765C69.2844 44.4555 68.5713 44.1987 67.8377 43.995C67.1039 43.7914 66.3744 43.6406 65.6489 43.5428C64.9234 43.4452 64.2347 43.3962 63.5827 43.3962C62.6859 43.3962 61.8709 43.4817 61.1372 43.6528C60.4036 43.8239 59.7842 44.0644 59.2788 44.3739C58.7734 44.6836 58.3822 45.0542 58.105 45.4861C57.8278 45.918 57.6892 46.4028 57.6892 46.9405C57.6892 47.5272 57.8442 48.0527 58.1539 48.5172C58.4636 48.9816 58.9037 49.4216 59.4744 49.8372C60.045 50.2527 60.7378 50.66 61.553 51.0594C62.3681 51.4586 63.2892 51.87 64.3162 52.2937C65.7183 52.8803 66.9777 53.5036 68.0944 54.1636C69.2111 54.8236 70.1689 55.5692 70.9677 56.4003C71.7666 57.2314 72.3778 58.1806 72.8017 59.248C73.2256 60.3153 73.4375 61.5578 73.4375 62.9756C73.4375 64.9311 73.0666 66.5728 72.3248 67.9009C71.5831 69.2291 70.5764 70.3047 69.3048 71.1275C68.0333 71.9505 66.5537 72.5413 64.8664 72.8997C63.1791 73.2583 61.3981 73.4375 59.5233 73.4375C57.5995 73.4375 55.7697 73.2745 54.0334 72.9486C52.2972 72.6227 50.7933 72.1339 49.5217 71.482ZM46.4062 44.3878H36.3719V72.9688H28.4228V44.3878H18.4375V37.9688H46.4062V44.3878Z" fill="#3178C6"/>
</g>
<defs>
<clipPath id="clip0_4417_109">
<rect width="80" height="80" fill="white"/>
</clipPath>
</defs>
</svg>
